After Oliver is shot, he turns to Felicity for help. Together, she and Diggle team 

up to save Oliver's life -- as he hovers between life and death. 




Format                                   : MPEG-4
Format profile                           : Base Media / Version 2
Codec ID                                 : mp42
File size                                : 420 MiB
Duration                                 : 42mn 31s
Overall bit rate mode                    : Variable
Overall bit rate                         : 1 380 Kbps
Encoded date                             : UTC 2013-02-13 07:49:20
Tagged date                              : UTC 2013-02-13 07:49:28

Video
ID                                       : 1
Format                                   : AVC
Format/Info                              : Advanced Video Codec
Format profile                           : High@L3.1
Format settings, CABAC                   : Yes
Format settings, ReFrames                : 5 frames
Codec ID                                 : avc1
Codec ID/Info                            : Advanced Video Coding
Duration                                 : 42mn 31s
Bit rate mode                            : Variable
Bit rate                                 : 1 243 Kbps
Width                                    : 1 280 pixels
Height                                   : 720 pixels
Display aspect ratio                     : 16:9
Frame rate mode                          : Variable
Frame rate                               : 23.976 fps
Minimum frame rate                       : 1.323 fps
Maximum frame rate                       : 1 000.000 fps
Color space                              : YUV
Chroma subsampling                       : 4:2:0
Bit depth                                : 8 bits
Scan type                                : Progressive
Bits/(Pixel*Frame)                       : 0.056
Stream size                              : 378 MiB (90%)
Encoded date                             : UTC 2013-02-13 07:49:20
Tagged date                              : UTC 2013-02-13 07:49:28

Audio
ID                                       : 2
Format                                   : AAC
Format/Info                              : Advanced Audio Codec
Format profile                           : LC
Codec ID                                 : 40
Duration                                 : 42mn 31s
Bit rate mode                            : Variable
Bit rate                                 : 128 Kbps
Channel(s)                               : 2 channels
Channel positions                        : Front: L R
Sampling rate                            : 48.0 KHz
Compression mode                         : Lossy
Stream size                              : 38.9 MiB (9%)
Encoded date                             : UTC 2013-02-13 07:49:20
Tagged date                              : UTC 2013-02-13 07:49:28




